<svg width="24" height="24" viewBox="0 0 24 24" fill="none" xmlns="http://www.w3.org/2000/svg">
<g clip-path="url(#clip0_88294_2259)">
<path d="M23.3116 14.5455C22.9641 14.5455 22.6825 14.8271 22.6825 15.1746V20.76C22.6813 21.8016 21.8372 22.6459 20.7954 22.6471H3.1452C2.10332 22.6459 1.25934 21.8016 1.25808 20.76V4.36785C1.25934 3.32598 2.10338 2.48199 3.1452 2.48074H8.73044C9.07786 2.48074 9.35948 2.19911 9.35948 1.8517C9.35948 1.50428 9.07786 1.22266 8.73044 1.22266H3.1452C1.40892 1.22461 0.00195002 2.63158 0 4.36785V20.76C0.00195002 22.4962 1.40892 23.9032 3.1452 23.9052H20.7954C22.5316 23.9032 23.9387 22.4962 23.9406 20.76V15.1748C23.9406 14.8273 23.659 14.5455 23.3116 14.5455Z" fill="#333333"/>
<path d="M9.83609 11.2353L19.0209 2.05036L21.983 5.01251L12.7983 14.1975L9.83609 11.2353ZM8.33746 15.6961L11.6109 14.7894L9.24416 12.4227L8.33746 15.6961ZM22.8019 0.493488C22.1873 -0.119574 21.1925 -0.119574 20.5779 0.493488L19.9108 1.16065L22.8729 4.1228L23.5401 3.45564C24.1534 2.84106 24.1534 1.84617 23.5401 1.23167L22.8019 0.493488Z" fill="#333333"/>
</g>
<defs>
<clipPath id="clip0_88294_2259">
<rect width="24" height="24" fill="white"/>
</clipPath>
</defs>
</svg>
